ik_tiny_file
version=1
nRows=17
nColumns=40
inDegrees=yes
endheader
time	pelvis_tilt	pelvis_list	pelvis_rotation	pelvis_tx	pelvis_ty	pelvis_tz	hip_flexion_r	hip_adduction_r	hip_rotation_r	knee_angle_r	knee_angle_r_beta	ankle_angle_r	subtalar_angle_r	mtp_angle_r	hip_flexion_l	hip_adduction_l	hip_rotation_l	knee_angle_l	knee_angle_l_beta	ankle_angle_l	subtalar_angle_l	mtp_angle_l	lumbar_extension	lumbar_bending	lumbar_rotation	arm_flex_r	arm_add_r	arm_rot_r	elbow_flex_r	pro_sup_r	wrist_flex_r	wrist_dev_r	arm_flex_l	arm_add_l	arm_rot_l	elbow_flex_l	pro_sup_l	wrist_flex_l	wrist_dev_l
      4.18000000	     36.61510281	      1.26482654	     13.79741955	      0.00000000	      0.94000000	      0.00000000	     31.22073480	     -9.50672970	      0.00000000	     42.53652834	      0.74240247	     -3.80928233	      0.00000000	      0.00000000	     31.22073480	     -9.50672970	      0.00000000	     42.53652834	      0.74240247	     -3.80928233	      0.00000000	      0.00000000	    -36.46201733	      8.90300491	     -6.10579257	    -34.26563232	     10.63281303	     -9.32724243	     42.71265102	     41.78476997	      0.00000000	      4.94521020	     -3.78803361	    -15.71770270	     12.56361421	      0.05179260	     41.78476997	      0.00000000	      4.94521020
      4.20000000	     36.56797534	      1.22156472	     13.74814762	      0.00000000	      0.94000000	      0.00000000	     31.22569144	     -9.50733010	      0.00000000	     42.54172296	      0.74249314	     -3.80985670	      0.00000000	      0.00000000	     31.22569144	     -9.50733010	      0.00000000	     42.54172296	      0.74249314	     -3.80985670	      0.00000000	      0.00000000	    -36.48566860	      8.91202388	     -6.16487097	    -34.07956707	     10.48535715	     -9.14245996	     42.54143864	     41.78788002	      0.00000000	      4.94532849	     -3.83681449	    -15.75905951	     12.31648071	      0.05062468	     41.78788002	      0.00000000	      4.94532849
      4.22000000	     36.53965992	      1.16372025	     13.70373631	      0.00000000	      0.94000000	      0.00000000	     31.23185630	     -9.50807526	      0.00000000	     42.54819016	      0.74260601	     -3.81057079	      0.00000000	      0.00000000	     31.23185630	     -9.50807526	      0.00000000	     42.54819016	      0.74260601	     -3.81057079	      0.00000000	      0.00000000	    -36.48579191	      8.92421802	     -6.22825982	    -33.85559741	     10.44026416	     -9.04612143	     42.35802602	     41.79174173	      0.00000000	      4.94547506	     -3.98804969	    -15.72927417	     11.87483951	      0.04916525	     41.79174173	      0.00000000	      4.94547506
      4.24000000	     36.53648963	      1.09061433	     13.64159039	      0.00000000	      0.94000000	      0.00000000	     31.23649975	     -9.50863641	      0.00000000	     42.55305897	      0.74269099	     -3.81110868	      0.00000000	      0.00000000	     31.23649975	     -9.50863641	      0.00000000	     42.55305897	      0.74269099	     -3.81110868	      0.00000000	      0.00000000	    -36.48920093	      8.92178289	     -6.24501964	    -33.65701087	     10.33966736	     -8.86501349	     42.18866650	     41.79465024	      0.00000000	      4.94558537	     -4.11574216	    -15.68774976	     11.44678515	      0.04803769	     41.79465024	      0.00000000	      4.94558537
      4.26000000	     36.52524017	      1.03783439	     13.59880640	      0.00000000	      0.94000000	      0.00000000	     31.24131856	     -9.50921815	      0.00000000	     42.55811262	      0.74277919	     -3.81166681	      0.00000000	      0.00000000	     31.24131856	     -9.50921815	      0.00000000	     42.55811262	      0.74277919	     -3.81166681	      0.00000000	      0.00000000	    -36.47553162	      8.90326184	     -6.30715927	    -33.37959816	     10.20850425	     -8.60901971	     41.78552909	     41.79766629	      0.00000000	      4.94569960	     -4.32043108	    -15.56892317	     11.04254641	      0.04723863	     41.79766629	      0.00000000	      4.94569960
      4.28000000	     36.49832975	      0.99024399	     13.56977673	      0.00000000	      0.94000000	      0.00000000	     31.24600579	     -9.50978189	      0.00000000	     42.56303964	      0.74286518	     -3.81220927	      0.00000000	      0.00000000	     31.24600579	     -9.50978189	      0.00000000	     42.56303964	      0.74286518	     -3.81220927	      0.00000000	      0.00000000	    -36.45235786	      8.87446185	     -6.36923587	    -33.16590814	     10.17967118	     -8.49083492	     41.47393060	     41.80059120	      0.00000000	      4.94581007	     -4.40215717	    -15.51817843	     10.85026706	      0.04760465	     41.80059120	      0.00000000	      4.94581007
      4.30000000	     36.50263862	      0.94797122	     13.54949153	      0.00000000	      0.94000000	      0.00000000	     31.25005467	     -9.51026832	      0.00000000	     42.56729705	      0.74293949	     -3.81267777	      0.00000000	      0.00000000	     31.25005467	     -9.51026832	      0.00000000	     42.56729705	      0.74293949	     -3.81267777	      0.00000000	      0.00000000	    -36.45411642	      8.85060264	     -6.39709469	    -33.01379686	     10.15925530	     -8.40214104	     41.23319390	     41.80311571	      0.00000000	      4.94590529	     -4.36769907	    -15.31475018	     10.83902669	      0.04983287	     41.80311571	      0.00000000	      4.94590529
      4.32000000	     36.51055636	      0.91084565	     13.56666155	      0.00000000	      0.94000000	      0.00000000	     31.25863306	     -9.51130265	      0.00000000	     42.57628558	      0.74309637	     -3.81367134	      0.00000000	      0.00000000	     31.25863306	     -9.51130265	      0.00000000	     42.57628558	      0.74309637	     -3.81367134	      0.00000000	      0.00000000	    -36.50798177	      8.84507566	     -6.39193740	    -32.78139107	     10.12136987	     -8.31395894	     40.94287269	     41.80848091	      0.00000000	      4.94610793	     -4.20917543	    -15.05113796	     10.87281803	      0.05318891	     41.80848091	      0.00000000	      4.94610793
      4.34000000	     36.47794898	      0.88871270	     13.56131377	      0.00000000	      0.94000000	      0.00000000	     31.26517302	     -9.51209012	      0.00000000	     42.58313897	      0.74321598	     -3.81442868	      0.00000000	      0.00000000	     31.26517302	     -9.51209012	      0.00000000	     42.58313897	      0.74321598	     -3.81442868	      0.00000000	      0.00000000	    -36.45174061	      8.77254361	     -6.32828344	    -32.71231841	     10.09347397	     -8.22943522	     40.67079247	     41.81256717	      0.00000000	      4.94626198	     -4.00351873	    -14.62790886	     10.99112871	      0.06090852	     41.81256717	      0.00000000	      4.94626198
      4.36000000	     36.44346315	      0.88419598	     13.57896921	      0.00000000	      0.94000000	      0.00000000	     31.27130444	     -9.51282752	      0.00000000	     42.58956514	      0.74332814	     -3.81513861	      0.00000000	      0.00000000	     31.27130444	     -9.51282752	      0.00000000	     42.58956514	      0.74332814	     -3.81513861	      0.00000000	      0.00000000	    -36.38196178	      8.70061695	     -6.25186261	    -32.65452698	     10.07700810	     -8.19675735	     40.39932852	     41.81639488	      0.00000000	      4.94640605	     -3.80368354	    -13.86435315	     11.08369423	      0.07814171	     41.81639488	      0.00000000	      4.94640605
      4.38000000	     36.42778930	      0.87991808	     13.61755912	      0.00000000	      0.94000000	      0.00000000	     31.28044206	     -9.51392582	      0.00000000	     42.59913716	      0.74349520	     -3.81619662	      0.00000000	      0.00000000	     31.28044206	     -9.51392582	      0.00000000	     42.59913716	      0.74349520	     -3.81619662	      0.00000000	      0.00000000	    -36.35358937	      8.66593617	     -6.11770910	    -32.58949472	     10.08822110	     -8.24349029	     40.14117463	     41.82209741	      0.00000000	      4.94662037	     -3.19465925	    -12.90514197	     11.33902253	      0.14114283	     41.82209741	      0.00000000	      4.94662037
      4.40000000	     36.36646809	      0.92581933	     13.65298046	      0.00000000	      0.94000000	      0.00000000	     31.28959627	     -9.51502234	      0.00000000	     42.60873223	      0.74366267	     -3.81725606	      0.00000000	      0.00000000	     31.28959627	     -9.51502234	      0.00000000	     42.60873223	      0.74366267	     -3.81725606	      0.00000000	      0.00000000	    -36.25384946	      8.54459244	     -6.03535016	    -32.66770166	     10.11280151	     -8.21992320	     40.02381149	     41.82779604	      0.00000000	      4.94683363	     -2.63474915	    -12.08238630	     11.56576722	      0.98563502	     41.82779604	      0.00000000	      4.94683363
      4.42000000	     36.37841170	      0.92665362	     13.70286887	      0.00000000	      0.94000000	      0.00000000	     31.46163798	     -9.52940512	      0.00000000	     42.83156820	      0.74755189	     -3.83575133	      0.00000000	      0.00000000	     31.46163798	     -9.52940512	      0.00000000	     42.83156820	      0.74755189	     -3.83575133	      0.00000000	      0.00000000	    -36.28687632	      8.56790337	     -5.90095538	    -32.64615309	     10.09772775	     -8.27815072	     39.86277650	     41.90817158	      0.00000000	      4.94914149	     -3.08188673	    -11.71959559	     12.18529771	      5.34663779	     41.90817158	      0.00000000	      4.94914149
      4.44000000	     36.36450403	      0.95725772	     13.73825062	      0.00000000	      0.94000000	      0.00000000	     31.60002198	     -9.54100221	      0.00000000	     43.00932248	      0.75065429	     -3.85063743	      0.00000000	      0.00000000	     31.60002198	     -9.54100221	      0.00000000	     43.00932248	      0.75065429	     -3.85063743	      0.00000000	      0.00000000	    -36.23078385	      8.48344168	     -5.83342304	    -32.68320228	     10.10761080	     -8.27234326	     39.70692554	     41.97295935	      0.00000000	      4.95100269	     -4.03425837	    -10.67947419	     12.88797167	     10.71105499	     41.97295935	      0.00000000	      4.95100269
      4.46000000	     36.42693290	      0.97066316	     13.78571752	      0.00000000	      0.94000000	      0.00000000	     31.72364345	     -9.55117911	      0.00000000	     43.16836820	      0.75343016	     -3.86389566	      0.00000000	      0.00000000	     31.72364345	     -9.55117911	      0.00000000	     43.16836820	      0.75343016	     -3.86389566	      0.00000000	      0.00000000	    -36.26457585	      8.43309158	     -5.77315070	    -32.73447314	     10.14467603	     -8.24928700	     39.63662258	     42.03006259	      0.00000000	      4.95261339	     -4.73268921	     -9.54388339	     13.17099402	     15.83083758	     42.03006259	      0.00000000	      4.95261339
      4.48000000	     36.48261886	      0.98589415	     13.82828327	      0.00000000	      0.94000000	      0.00000000	     31.83553846	     -9.56029674	      0.00000000	     43.31211641	      0.75593904	     -3.87587675	      0.00000000	      0.00000000	     31.83553846	     -9.56029674	      0.00000000	     43.31211641	      0.75593904	     -3.87587675	      0.00000000	      0.00000000	    -36.24931581	      8.35988451	     -5.72342549	    -32.83973715	     10.14978427	     -8.18801778	     39.61425335	     42.08135812	      0.00000000	      4.95404370	     -5.48300271	     -8.20503828	     13.23392500	     20.74539311	     42.08135812	      0.00000000	      4.95404370
      4.50000000	     36.51485208	      1.00749834	     13.86889065	      0.00000000	      0.94000000	      0.00000000	     31.94293600	     -9.56894072	      0.00000000	     43.45004442	      0.75834634	     -3.88735339	      0.00000000	      0.00000000	     31.94293600	     -9.56894072	      0.00000000	     43.45004442	      0.75834634	     -3.88735339	      0.00000000	      0.00000000	    -36.25362271	      8.29244644	     -5.70537620	    -32.85358893	     10.11486422	     -8.15301102	     39.54716293	     42.13014240	      0.00000000	      4.95538567	     -5.90143340	     -7.04232962	     13.77169751	     26.05612608	     42.13014240	      0.00000000	      4.95538567
